<?xml version="1.0" standalone="no"?>
<!DOCTYPE svg PUBLIC "-//W3C//DTD SVG 1.1//EN" "http://www.w3.org/Graphics/SVG/1.1/DTD/svg11.dtd" >
<svg xmlns="http://www.w3.org/2000/svg">
<metadata>Generated by IcoMoon</metadata>
<defs>
<font id="icomoon" horiz-adv-x="1024">
<font-face units-per-em="1024" ascent="960" descent="-64" />
<missing-glyph horiz-adv-x="1024" />
<glyph unicode="&#x20;" horiz-adv-x="512" d="" />
<glyph unicode="&#xe900;" glyph-name="1" d="M1020.83 581.73c-0.889-1.925-1.923-3.584-3.134-5.095l0.037 0.048c-13.287-15.891-25.969-30.041-39.105-43.752l0.291 0.305c-5.461-5.876-10.923-11.727-16.335-17.652-3.157-3.22-6.367-6.314-9.662-9.315l-0.188-0.169c-5.193-4.852-17.554-16.262-23.454-23.113l1.146-7.241c1.292-8.192 2.755-16.798 4.437-25.844 6.339-34.865 13.531-74.386 6.997-108.032-2.489-11.555-12.62-20.089-24.744-20.089-0.387 0-0.772 0.009-1.154 0.026l0.054-0.002c-0.683 0.049-1.292 0.268-1.926 0.317-15.287 1.341-28.306 8.241-38.814 13.995-2.144 1.258-5.299 2.931-8.505 4.518l-1.126 0.504c-18.359 8.533-36.766 16.994-55.174 25.454l-24.088 11.020c-3.023-1.438-6.266-3.17-9.362-4.73-6.388-3.243-12.727-6.412-19.432-9.85l-14.507-7.436c-15.653-7.973-31.549-15.726-47.787-22.284-3.682-1.487-7.387-2.901-11.045-4.242-7.095-2.633-14.287-4.998-21.553-6.997-1.976-0.561-4.245-0.884-6.59-0.884-6.392 0-12.224 2.397-16.646 6.342l0.025-0.022c-1.097 0.902-1.902 2.024-2.755 3.194-3.47 4.172-5.576 9.586-5.576 15.491 0 1.253 0.095 2.483 0.278 3.685l-0.017-0.135 1.95 12.532c5.413 34.597 11.362 73.411 9.899 105.35l-0.049 0.512c-0.122 2.341-0.171 4.706-0.366 6.949-0.926 10.728-14.629 23.698-26.746 35.157l-8.119 7.802c-2.292 2.316-4.559 4.584-6.607 6.778-3.462 3.852-7.899 8.021-12.507 12.459-15.311 14.555-32.695 31.11-39.083 50.322-0.171 0.634-0.219 1.268-0.39 1.877-0.475 1.802-0.748 3.871-0.748 6.003 0 7.6 3.464 14.391 8.898 18.881l0.041 0.033c2.563 2.159 5.618 3.826 8.967 4.808l0.176 0.044c25.551 7.144 51.371 10.654 76.361 14.043l10.728 1.512c1.682 0.195 5.413 0.536 10.24 0.975 3.243 0.219 9.362 0.756 15.701 1.39 5.242 0.488 10.703 1.122 14.872 1.804 4.925 9.411 9.923 19.846 15.116 30.769 15.896 33.304 33.938 71.095 58.929 96.085 4.827 4.73 11.435 7.363 18.188 7.266 1.317 0 2.609-0.219 3.901-0.488 5.315-0.926 10.24-3.486 13.97-7.558 24.186-26.136 40.96-60.757 57.222-94.306 4.974-10.264 9.777-20.236 14.653-29.477l14.897-2.292c17.798-2.755 36.157-5.608 54.345-9.118 10.216-1.95 20.334-4.535 30.135-6.997 9.533-2.438 18.505-4.681 27.014-6.29 8.606-1.634 15.75-7.656 18.725-15.799 2.341-6.29 1.902-13.117-0.902-19.042zM936.375 581.144c-8.403 1.904-26.241 4.976-44.184 7.729l-8.308 1.048c-9.216 1.438-18.359 2.828-27.502 4.364-7.648 1.256-14.015 5.866-17.637 12.239l-0.064 0.122c-7.534 13.41-14.726 28.282-21.65 42.594-9.801 20.163-19.773 40.789-31.013 58.466-0.829-1.243-1.585-2.609-2.341-3.901-10.289-16.628-19.7-36.084-28.843-55.394-7.144-14.848-13.848-28.94-20.992-41.765-7.753-13.775-22.43-16.677-60.367-19.846-1.829-0.171-3.413-0.341-5.413-0.488-3.413-0.268-6.071-0.512-7.412-0.658l-6.729-0.902-4.096-0.61c-11.264-1.487-22.26-2.999-33.012-4.779 2.267-2.267 4.486-4.364 6.534-6.315 5.534-5.193 10.728-10.216 14.897-14.726 3.608-3.974 7.899-7.973 12.288-12.166 12.702-12.069 27.599-26.331 35.889-44.471 3.145-6.827 5.413-14.214 6.095-22.284 1.902-21.406 0.512-45.275-2.097-68.779-0.975-9.094-2.121-18.139-3.413-26.917 1.682 0.707 3.365 1.56 5.022 2.365 19.871 9.071 33.855 16.084 47.632 23.433l-5.014-2.441c1.463 0.756 3.023 1.512 4.535 2.316 12.093 6.193 24.357 12.483 36.547 18.091 3.365 1.56 6.924 2.292 10.484 2.292 3.584 0 7.168-0.731 10.508-2.292l34.645-15.896c18.456-8.509 36.986-16.945 55.442-25.576 0.414-0.195 0.902-0.463 1.414-0.683l5.998-3.023c-1.146 18.432-4.827 38.814-8.436 58.807-2.188 10.275-4.66 25.219-6.657 40.312l-0.389 3.598c-1.853 16.677 10.118 29.598 39.936 57.271 3.194 3.023 5.803 5.388 6.997 6.656 5.51 5.973 11.142 12.020 16.774 18.042l6.997 7.534c0.951 1.024 1.975 2.048 2.901 3.121-3.115 0.875-8.497 2.093-13.93 3.173l-2.040 0.338zM536.844 641.634c-2.974-3.56-14.068-15.506-24.674-25.722-39.838-38.327-89.576-59.441-140.093-59.441-38.546 0-76.8 12.556-110.592 36.401-78.214 55.125-93.306 151.357-36.645 233.984 8.777 12.776 18.578 26.112 21.602 29.989 1.317 1.731 2.974 3.267 4.876 4.779 42.594 32.744 88.064 49.371 135.217 49.371 34.255 0 69.071-8.948 103.448-26.478 2.706-1.414 5.071-3.072 6.973-4.925 3.755-3.584 14.141-15.141 25.868-28.891 49.371-57.685 55.759-131.974 17.554-203.825-1.073-1.991-2.246-3.708-3.574-5.289l0.039 0.047zM476.989 819.273c-11.922 13.239-35.45 27.721-52.492 32.232-36.328 9.655-72.826 6.144-105.399-10.118-14.897-7.485-27.721-18.554-30.744-22.699-0.707-0.975-1.463-1.877-2.341-2.804-51.566-54.199-41.886-102.498-31.549-126.366 19.261-44.544 70.242-75.654 124.002-75.654 44.008 0 83.529 20.456 111.787 58.149 2.584 2.731 10.167 16.457 14.824 31.963 12.41 41.179 2.658 81.067-28.087 115.298zM432.811 518.217c35.304-0.341 70.583-0.829 105.935-1.122 11.8-0.122 23.771 0.195 35.669 0.463 1.243-1.292 2.56-2.609 3.633-3.852 4.779-5.486 10.216-10.898 15.482-16.14 9.143-9.094 18.456-18.383 24.308-27.697-5.315 0.049-10.557 0.049-15.653 0.049-29.33 0-58.661-0.561-88.064-0.268-68.632 0.707-137.289 1.731-205.922 0.756-68.34-1-136.728-3.925-204.751-11.093-21.504-6.973-36.913-21.577-46.665-41.594-2.17-107.227-6.339-214.284-0.926-321.438 38.814 0.098 77.629 0.463 116.395 2.243-0.61 69.925-1.414 151.308-1.536 201.582-0.049 30.744 47.909 30.744 47.957 0 0.171-67.56 1.634-191.049 1.95-267.8 109.934-0.366 219.892-2.024 329.777-2.462-1 77.019-5.925 204.751-9.85 274.188-1.755 30.793 46.275 30.647 48.006 0 3.121-55.857 6.924-149.309 8.802-223.866 29.242 1.421 63.508 2.23 97.962 2.23 2.461 0 4.921-0.004 7.38-0.012l-0.383 0.001c-0.113 31.921-0.528 62.901-1.245 93.807l0.099-5.426c-1.17 46.568-2.682 93.062-4.803 139.581 14.824 7.241 29.452 15.116 43.837 22.918l3.584 1.95c0.39-15.36 0.707-30.696 1.195-46.031 2.316-74.606 5.291-149.016 5.461-223.72 0.049-17.115-14.775-24.649-27.965-22.699-3.604-2.964-8.266-4.761-13.347-4.761-0.185 0-0.369 0.002-0.553 0.007l0.027-0.001c-36.815-0.049-73.557-0.317-110.324-2.194l0.219-15.921c7.899-13.019 1.902-34.621-18.188-34.572-128.293 0.171-256.561 2.633-384.853 2.731-10.776 0.049-17.481 6.193-20.187 13.946-1.6 3.083-2.538 6.732-2.538 10.599 0 0.105 0.001 0.21 0.002 0.315v-0.016c0 12.117-0.073 26.136-0.171 41.277-45.349-2.121-90.722-2.267-136.070-2.267-0.184-0.006-0.4-0.009-0.616-0.009-5.469 0-10.443 2.118-14.146 5.579l0.012-0.011c-7.468 3.751-12.579 11.213-12.921 19.899l-0.001 0.044c-7.046 114.030-2.267 227.938 0 341.967 0.021 3.9 1.002 7.565 2.718 10.779l-0.061-0.124c0.366 3.145 1.243 6.315 2.584 9.338 14.946 32.768 44.008 56.174 78.336 66.633 3.584 1.048 6.875 1.292 9.85 0.951 31.971 3.58 73.018 6.687 114.394 8.529l4.244 0.15c70.583 3.17 141.288 3.17 211.919 2.584z" />
<glyph unicode="&#xe901;" glyph-name="2" d="M1016.397 268.723v-295.552c0-16.333-13.235-29.542-29.568-29.542h-236.416c-0.008 0-0.017 0-0.026 0-16.316 0-29.542 13.227-29.542 29.542 0 0 0 0 0 0v0l-0.154 276.378c-81.331 19.405-154.931 65.587-208.794 130.637l-4.198-5.043c-52.144-60.942-122.079-105.285-201.722-125.034l-2.668-0.56-0.154-276.378c0-16.333-13.235-29.542-29.568-29.542h-236.416c-0.008 0-0.017 0-0.026 0-16.316 0-29.542 13.227-29.542 29.542 0 0 0 0 0 0v0 295.552c0.102 81.575 66.212 147.676 147.781 147.763h59.093c113.229 0 208.87 95.642 208.87 208.845 0.044 48.949 39.706 88.62 88.647 88.678h0.006c48.947-0.058 88.609-39.729 88.653-88.674v-0.004c0-113.203 95.642-208.845 208.845-208.845h59.11c81.577-0.087 147.687-66.188 147.789-147.753v-0.010zM512 654.899c-16.307 0-29.542-13.261-29.542-29.568 0-70.938-28.058-138.061-78.976-188.979s-118.042-78.95-189.005-78.95h-59.085c-48.952-0.058-88.62-39.726-88.678-88.673v-265.99h177.357l0.154 270.95c0 14.413 10.394 26.726 24.627 29.133 155.469 26.266 272.691 164.915 272.691 322.509 0 16.307-13.261 29.568-29.542 29.568zM957.286 268.723c-0.058 48.952-39.726 88.62-88.673 88.678h-59.116c-70.938 0-138.061 28.032-188.979 78.95-16.539 16.528-30.981 35.151-42.895 55.438l-0.701 1.292c-8.982-24.133-18.944-44.696-30.57-64.15l0.976 1.763c50.688-67.738 125.466-113.946 207.821-127.872 14.234-2.406 24.627-14.72 24.627-29.133l0.154-270.95h177.357v265.984zM37.171 534.707c0.058 65.268 52.953 118.163 118.215 118.221h0.005c65.257-0.073 118.137-52.962 118.195-118.215v-0.005c-0.073-65.253-52.944-118.133-118.187-118.221h-0.008c-65.262 0.073-118.148 52.958-118.221 118.214v0.007zM155.392 475.597c32.623 0.044 59.056 26.485 59.085 59.108v0.003c-0.015 32.631-26.456 59.081-59.082 59.11h-0.003c-32.64-0.015-59.096-26.47-59.11-59.109v-0.001c0.029-32.634 26.476-59.081 59.108-59.11h0.003zM750.413 534.707c0.058 65.259 52.938 118.148 118.188 118.221h0.007c65.268-0.058 118.163-52.953 118.221-118.215v-0.005c-0.073-65.262-52.958-118.148-118.214-118.221h-0.007c-65.251 0.087-118.122 52.968-118.195 118.214v0.007zM868.608 475.597c32.628 0.044 59.067 26.482 59.11 59.106v0.004c-0.029 32.634-26.476 59.081-59.108 59.11h-0.003c-32.634-0.029-59.081-26.476-59.11-59.108v-0.003c0.044-32.628 26.482-59.067 59.106-59.11h0.004zM651.11 783.744c-5.272-4.942-12.382-7.978-20.202-7.978-16.33 0-29.568 13.238-29.568 29.568 0 7.814 3.031 14.919 7.981 20.205l-0.015-0.016 59.11 59.11c5.272 4.942 12.382 7.978 20.202 7.978 16.33 0 29.568-13.238 29.568-29.568 0-7.814-3.031-14.919-7.981-20.205l0.015 0.016-59.11-59.11zM512 834.176c-16.319 0.015-29.542 13.247-29.542 29.568v0 59.085c0 16.316 13.227 29.542 29.542 29.542s29.542-13.227 29.542-29.542v0-59.085c0-16.307-13.21-29.568-29.542-29.568zM372.89 783.744l-59.11 59.11c-5.346 5.346-8.653 12.732-8.653 20.89 0 16.316 13.227 29.542 29.542 29.542 8.158 0 15.543-3.307 20.89-8.653l59.11-59.11c5.346-5.346 8.653-12.732 8.653-20.89 0-16.316-13.227-29.542-29.542-29.542-8.158 0-15.543 3.307-20.89 8.653v0z" />
<glyph unicode="&#xe902;" glyph-name="3" d="M982.579-53.837c-17.268 0-31.269 13.991-31.283 31.256v20.891c-0.058 28.772-23.374 52.078-52.143 52.122h-146.001c-28.763-0.058-52.063-23.359-52.122-52.116v-20.896c0-17.277-14.006-31.283-31.283-31.283s-31.283 14.006-31.283 31.283v0 20.89c0.058 63.317 51.371 114.63 114.682 114.688h146.002c63.328-0.044 114.655-51.362 114.714-114.682v-20.896c0-17.254-14.029-31.258-31.283-31.258zM826.163 154.701c-57.565 0.087-104.207 46.729-104.294 104.286v0.008c0.073 57.566 46.727 104.211 104.289 104.269h0.006c57.557-0.073 104.196-46.712 104.269-104.262v-0.007c-0.073-57.562-46.709-104.207-104.26-104.294h-0.008zM826.163 300.698c-22.597-0.577-40.695-19.033-40.695-41.715s18.098-41.138 40.641-41.714l0.053-0.001c22.597 0.577 40.695 19.033 40.695 41.715s-18.098 41.138-40.641 41.714l-0.053 0.001zM774.016 696.96h-145.997c-16.738 0.698-30.043 14.437-30.043 31.283s13.305 30.585 29.98 31.281l0.063 0.002h88.858c-38.451 75.238-116.813 125.133-203.546 125.133-0.227 0.001-0.496 0.001-0.765 0.001-107.729 0-198.034-74.599-222.076-174.958l-0.315-1.556c-3.304-14.020-15.709-24.296-30.513-24.296-17.291 0-31.309 14.017-31.309 31.309 0 2.599 0.317 5.124 0.913 7.538l-0.045-0.215c31.038 129.751 146.021 224.718 283.185 224.718 0.325 0 0.65-0.001 0.974-0.002h-0.050c91.443 0 175.232-43.93 229.402-113.254v40.269c0 17.277 14.006 31.283 31.283 31.283s31.283-14.006 31.283-31.283v0-145.971c0-17.28-14.003-31.283-31.283-31.283zM252.646 613.53h145.971c17.277 0 31.283-14.006 31.283-31.283s-14.006-31.283-31.283-31.283h-88.883c38.477-75.238 116.838-125.133 203.597-125.133 0.221-0.001 0.483-0.001 0.745-0.001 107.734 0 198.044 74.598 222.096 174.958l0.315 1.556c3.488 13.922 15.89 24.069 30.662 24.069 2.462 0 4.858-0.282 7.157-0.815l-0.213 0.042c16.819-3.968 27.238-20.813 23.322-37.632-31.028-129.764-146.018-224.744-283.191-224.744-0.314 0-0.627 0-0.941 0.001h0.048c-91.443 0-175.258 43.93-229.402 113.28v-40.294c-0.698-16.738-14.437-30.043-31.283-30.043s-30.585 13.305-31.281 29.98l-0.002 0.063v145.997c0 17.28 14.003 31.283 31.283 31.283zM304.768 258.995c-0.058-57.568-46.703-104.222-104.262-104.294h-0.007c-57.566 0.073-104.211 46.727-104.269 104.289v0.006c0.058 57.563 46.706 104.211 104.263 104.269h0.006c57.563-0.058 104.211-46.706 104.269-104.263v-0.006zM200.499 300.698c-23.035-0.015-41.702-18.691-41.702-41.728 0-23.046 18.682-41.728 41.728-41.728 0.009 0 0.018 0 0.027 0h-0.001c23.035 0.015 41.702 18.691 41.702 41.728 0 23.046-18.682 41.728-41.728 41.728-0.009 0-0.018 0-0.027 0h0.001zM273.485 112.998c63.328-0.044 114.655-51.362 114.714-114.682v-20.896c0-17.277-14.006-31.283-31.283-31.283s-31.283 14.006-31.283 31.283v0 20.89c-0.058 28.772-23.374 52.078-52.143 52.122h-145.975c-28.774-0.044-52.089-23.35-52.147-52.116v-20.896c0-17.277-14.006-31.283-31.283-31.283s-31.283 14.006-31.283 31.283v0 20.89c0.058 63.326 51.386 114.644 114.709 114.688h145.975z" />
<glyph unicode="&#xe903;" glyph-name="4" d="M174.825 333.653c6.124-4.158 13.679-6.638 21.814-6.638 13.531 0 25.459 6.863 32.494 17.297l0.089 0.139c61.86 91.793 165.426 151.366 282.906 151.366 0.141 0 0.282 0 0.423 0h-0.022c113.726 0 219.446-56.32 282.872-150.652 7.144-10.498 19.037-17.303 32.52-17.303 21.655 0 39.211 17.555 39.211 39.211 0 8.173-2.5 15.762-6.778 22.043l0.087-0.136c-49.763 73.436-120.416 129.397-203.385 159.836l-2.904 0.932c49.971 40.931 81.61 102.637 81.61 171.732 0 0.029 0 0.058 0 0.087v-0.004c0 122.321-99.359 221.805-221.525 221.805s-221.556-99.483-221.556-221.805c0-0.022 0-0.048 0-0.075 0-68.611 31.187-129.937 80.158-170.577l0.365-0.295c-87.213-31.287-158.95-87.954-208.23-161.019l-0.945-1.487c-4.146-6.13-6.619-13.688-6.619-21.822 0-13.542 6.852-25.484 17.279-32.548l0.138-0.088zM514.234 864.861c79.047-0.141 143.077-64.236 143.112-143.295v-0.003c-0.035-79.062-64.065-143.157-143.098-143.298h-0.014c-79.047 0.141-143.077 64.236-143.112 143.295v0.003c0.035 79.062 64.065 143.157 143.098 143.298h0.014zM670.596 248.258l-58.461-42.201c-6.217-4.523-10.211-11.773-10.211-19.957 0-2.727 0.444-5.351 1.263-7.803l-0.050 0.174 23.521-68.329c0.818-2.357 1.29-5.073 1.29-7.899 0-0.332-0.007-0.663-0.019-0.992l0.001 0.047c-0.838-18.339-23.8-30.875-40.65-18.742l-58.461 42.232c-4.042 2.946-9.106 4.714-14.584 4.714s-10.543-1.768-14.656-4.764l0.071 0.049-58.461-42.232c-16.849-12.133-39.905 0.403-40.65 18.742-0.011 0.282-0.018 0.612-0.018 0.945 0 2.826 0.472 5.542 1.342 8.073l-0.052-0.175 23.521 68.329c0.769 2.278 1.213 4.902 1.213 7.629 0 8.184-3.995 15.434-10.141 19.908l-0.071 0.049-58.461 42.201c-19.456 14.026-9.464 47.383 14.584 47.383h72.239c10.768 0 20.294 4.127 23.614 14.274l22.311 68.763c3.221 9.978 12.426 17.069 23.288 17.069 0.115 0 0.229-0.001 0.343-0.002h-0.017c9.93 0 19.89-5.71 23.583-17.067l22.342-68.763c3.32-10.147 12.847-14.274 23.614-14.274h72.239c24.048 0 34.040-33.358 14.584-47.383zM1005.847 110.856l-58.461-42.232c-6.215-4.516-10.209-11.761-10.209-19.939 0-2.723 0.443-5.342 1.26-7.789l-0.050 0.173 23.521-68.329c0.817-2.362 1.289-5.084 1.289-7.917 0-0.326-0.006-0.65-0.019-0.973l0.001 0.046c-0.838-18.339-23.8-30.906-40.65-18.711l-58.461 42.201c-4.018 2.948-9.061 4.717-14.518 4.717-0.023 0-0.047 0-0.070 0h0.004c-5.12 0-10.24-1.552-14.584-4.717l-58.461-42.201c-16.849-12.195-39.905 0.372-40.65 18.711-0.011 0.276-0.017 0.601-0.017 0.927 0 2.833 0.472 5.555 1.342 8.092l-0.052-0.176 23.521 68.329c0.767 2.274 1.21 4.893 1.21 7.616 0 8.178-3.994 15.422-10.138 19.89l-0.071 0.049-58.461 42.232c-19.456 14.057-9.464 47.352 14.584 47.352h72.239c10.768 0 20.294 4.158 23.614 14.336l22.342 68.732c3.177 9.973 12.358 17.070 23.197 17.070 0.136 0 0.271-0.001 0.406-0.003h-0.020c9.93 0 19.89-5.679 23.614-17.067l22.311-68.732c3.32-10.178 12.847-14.336 23.614-14.336h72.239c24.048 0 34.040-33.296 14.584-47.352zM335.344 110.856l-58.461-42.232c-6.215-4.516-10.209-11.761-10.209-19.939 0-2.723 0.443-5.342 1.26-7.789l-0.050 0.173 23.521-68.329c0.817-2.362 1.289-5.084 1.289-7.917 0-0.326-0.006-0.65-0.019-0.973l0.001 0.046c-0.838-18.339-23.8-30.906-40.65-18.711l-58.461 42.201c-4.018 2.948-9.061 4.717-14.518 4.717-0.023 0-0.047 0-0.070 0h0.004c-5.12 0-10.24-1.552-14.584-4.717l-58.461-42.201c-16.849-12.195-39.936 0.372-40.65 18.711-0.011 0.276-0.017 0.601-0.017 0.927 0 2.833 0.472 5.555 1.342 8.092l-0.052-0.176 23.521 68.329c0.77 2.276 1.215 4.897 1.215 7.622 0 8.184-4.010 15.431-10.173 19.884l-0.072 0.049-58.43 42.232c-19.456 14.057-9.464 47.352 14.584 47.352h72.239c10.768 0 20.294 4.158 23.614 14.336l22.311 68.732c3.21 9.977 12.409 17.069 23.265 17.069 0.123 0 0.245-0.001 0.367-0.003h-0.018c9.93 0 19.89-5.679 23.583-17.067l22.342-68.732c3.32-10.178 12.847-14.336 23.614-14.336h72.239c24.048 0 34.040-33.296 14.584-47.352z" />
<glyph unicode="&#xe904;" glyph-name="Calendar" d="M892.343-30.549h-760.686c-0.029 0-0.063 0-0.098 0-36.635 0-66.337 29.685-66.365 66.314v711.293c0 36.62 29.745 66.316 66.462 66.316h73.143v49.786c0 36.669 29.794 66.365 66.511 66.365h2.633c36.718 0 66.511-29.696 66.511-66.365v-49.786h343.089v49.786c0 36.669 29.745 66.365 66.462 66.365h2.682c36.718 0 66.511-29.696 66.511-66.365v-49.786h73.143c36.718 0 66.462-29.696 66.462-66.316v-711.29c0-36.62-29.745-66.316-66.462-66.316zM847.092 613.010h-670.184v-538.722h670.184v538.722zM267.995 505.88h115.663c5.9 0 10.63-4.73 10.63-10.63v-115.419c0-5.851-4.73-10.63-10.63-10.63h-115.663c0 0 0 0 0 0-5.881 0-10.651 4.753-10.679 10.627v115.422c0 5.9 4.779 10.63 10.679 10.63zM267.995 320.098h115.663c5.9 0 10.63-4.73 10.63-10.63v-115.419c0-5.851-4.73-10.63-10.63-10.63h-115.663c0 0 0 0 0 0-5.881 0-10.651 4.753-10.679 10.627v115.422c0 5.9 4.779 10.63 10.679 10.63zM454.168 505.88h115.663c5.9 0 10.63-4.73 10.63-10.63v-115.419c0-5.851-4.73-10.63-10.63-10.63h-115.663c0 0 0 0 0 0-5.881 0-10.651 4.753-10.679 10.627v115.422c0 5.9 4.779 10.63 10.679 10.63zM454.168 320.098h115.663c5.9 0 10.63-4.73 10.63-10.63v-115.419c0-5.851-4.73-10.63-10.63-10.63h-115.663c0 0 0 0 0 0-5.881 0-10.651 4.753-10.679 10.627v115.422c0 5.9 4.779 10.63 10.679 10.63zM640.341 505.88h115.663c5.9 0 10.63-4.73 10.63-10.63v-115.419c0-5.851-4.73-10.63-10.63-10.63h-115.663c-5.871 0-10.63 4.759-10.63 10.63v0 115.419c0 5.9 4.73 10.63 10.63 10.63zM640.341 320.098h115.663c5.9 0 10.63-4.73 10.63-10.63v-115.419c0-5.851-4.73-10.63-10.63-10.63h-115.663c-5.871 0-10.63 4.759-10.63 10.63v0 115.419c0 5.9 4.73 10.63 10.63 10.63z" />
<glyph unicode="&#xe905;" glyph-name="Check-2" d="M939.846 639.86l-526.615-526.615-329.076 329.076 131.631 131.724 197.446-197.539 394.985 394.985 131.631-131.631z" />
<glyph unicode="&#xe906;" glyph-name="Check-3" d="M7.578 402.466c79.667-55.569 121.378-65.673 190.123-182.204 68.676-116.668 80.691-195.994 98.782-210.534 18.091-14.609 108.476 3.686 155.511 29.15 46.967 25.463 48.742 39.526 92.638 143.019 60.826 143.292 159.676 319.351 235.657 421.342 75.913 102.059 235.793 236.203 243.029 261.734s-68.676 37.342-141.039 15.428c-72.294-21.777-224.666-190.669-316.689-323.447-102.195-147.593-138.513-272.179-156.535-268.493-18.091 3.618-53.453 77.892-104.038 132.506-50.654 54.613-103.97 91.682-165.478 80.759-61.44-10.923-168.755-73.591-131.959-99.26z" />
<glyph unicode="&#xe907;" glyph-name="Check-4" d="M512-64c-282.769 0-512 229.231-512 512s229.231 512 512 512 512-229.231 512-512-229.231-512-512-512zM512 945.135c-274.56 0-497.135-222.575-497.135-497.135s222.575-497.135 497.135-497.135c274.56 0 497.135 222.575 497.135 497.135s-222.575 497.135-497.135 497.135zM289.988 440.841l12.075 12.075 138.778-138.786 289.63 289.63 12.066-12.066-301.696-301.696-150.852 150.844z" />
<glyph unicode="&#xe908;" glyph-name="Down-Arrow" d="M994.731 618.837l-482.731-482.731-482.731 482.731 120.661 120.661 362.069-362.069 361.984 362.069 120.747-120.661z" />
<glyph unicode="&#xe909;" glyph-name="Envelope" d="M872.864 64h-721.76c-83.392 0-151.104 68.928-151.104 153.856v397.536l481.152-299.072c9.696-6.176 20.576-8.64 30.24-8.64s20.544 2.464 30.24 8.64l482.368 299.072v-397.536c0-84.928-67.712-153.856-151.136-153.856zM4.832 711.392c14.496 68.928 74.976 120.608 146.272 120.608h721.76c71.328 0 131.776-51.68 146.304-120.608l-506.56-315.072-507.776 315.072z" />
<glyph unicode="&#xe90a;" glyph-name="Grid" d="M808.421 528.842c-119.061 0-215.579 96.518-215.579 215.579s96.518 215.579 215.579 215.579v0c119.061 0 215.579-96.518 215.579-215.579s-96.518-215.579-215.579-215.579v0zM808.421 852.211c-0.726 0.018-1.58 0.028-2.437 0.028-59.53 0-107.789-48.259-107.789-107.789s48.259-107.789 107.789-107.789c0.838 0 1.674 0.010 2.507 0.029l-0.124-0.002c58.496 1.334 105.406 49.071 105.406 107.763 0 58.674-46.88 106.398-105.226 107.76l-0.127 0.002zM215.579-64c-119.061 0-215.579 96.518-215.579 215.579s96.518 215.579 215.579 215.579v0c119.061 0 215.579-96.518 215.579-215.579s-96.518-215.579-215.579-215.579v0zM215.579 259.368c-0.726 0.018-1.58 0.028-2.437 0.028-59.53 0-107.789-48.259-107.789-107.789s48.259-107.789 107.789-107.789c0.838 0 1.674 0.010 2.507 0.029l-0.124-0.002c58.496 1.334 105.406 49.071 105.406 107.763 0 58.674-46.88 106.398-105.226 107.76l-0.127 0.002zM215.579 528.842c-119.061 0-215.579 96.518-215.579 215.579s96.518 215.579 215.579 215.579v0c119.061 0 215.579-96.518 215.579-215.579s-96.518-215.579-215.579-215.579v0zM215.579 852.211c-0.726 0.018-1.58 0.028-2.437 0.028-59.53 0-107.789-48.259-107.789-107.789s48.259-107.789 107.789-107.789c0.838 0 1.674 0.010 2.507 0.029l-0.124-0.002c58.496 1.334 105.406 49.071 105.406 107.763 0 58.674-46.88 106.398-105.226 107.76l-0.127 0.002zM808.421 367.158c119.061 0 215.579-96.518 215.579-215.579s-96.518-215.579-215.579-215.579v0c-119.061 0-215.579 96.518-215.579 215.579s96.518 215.579 215.579 215.579v0zM808.421 43.789c59.53 0 107.789 48.259 107.789 107.789s-48.259 107.789-107.789 107.789v0c-59.53 0-107.789-48.259-107.789-107.789s48.259-107.789 107.789-107.789v0z" />
<glyph unicode="&#xe90b;" glyph-name="Hover-Arrow" d="M739.556 183.068l-80.441 80.441 127.545 127.602h-786.66v113.778h786.66l-127.545 127.602 80.441 80.441 264.932-264.932-264.932-264.932z" />
<glyph unicode="&#xe90c;" glyph-name="Left-Arrow" d="M288.768 746.518c17.586 17.809 46.837 17.809 65.002 0 8.148-8.038 13.196-19.201 13.196-31.544s-5.048-23.506-13.191-31.539l-0.005-0.005-196.118-189.752h820.803c25.377 0 45.546-19.768 45.546-44.7-0.076-25.023-20.378-45.279-45.412-45.279-0.047 0-0.094 0-0.141 0h-820.796l196.118-189.084c17.586-17.809 17.586-46.525 0-63.755-8.335-8.279-19.821-13.396-32.501-13.396s-24.165 5.117-32.503 13.398l0.003-0.003-274.165 266.24c-8.413 7.921-13.652 19.132-13.652 31.566s5.239 23.645 13.63 31.545l0.022 0.021 274.165 266.285z" />
<glyph unicode="&#xe90d;" glyph-name="List" d="M990.72 401.548h-956.928c-18.385 0-33.28 10.426-33.28 23.226v46.22c0 12.8 14.895 23.18 33.28 23.18h956.928c18.385 0 33.28-10.38 33.28-23.18v-46.22c0-12.8-14.895-23.226-33.28-23.226zM990.72 680.867h-956.928c-18.385 0-33.28 10.38-33.28 23.18v46.22c0 12.8 14.895 23.18 33.28 23.18h956.928c18.385 0 33.28-10.38 33.28-23.18v-46.22c0-12.8-14.895-23.18-33.28-23.18zM33.792 214.9h538.019c18.385 0 33.28-10.38 33.28-23.18v-46.22c0-12.8-14.895-23.226-33.28-23.226h-538.019c-18.385 0-33.28 10.426-33.28 23.226v46.22c0 12.8 14.895 23.18 33.28 23.18z" />
<glyph unicode="&#xe90e;" glyph-name="Location" d="M764.307 854.9c-64.13 64.867-153.119 105.039-251.492 105.039-0.287 0-0.573 0-0.86-0.001h0.044c-95.325 0-184.941-37.298-252.338-105.038-124.711-125.3-140.226-361.1-33.575-503.932l285.913-414.875 285.448 414.286c107.086 143.422 91.601 379.221-33.14 504.522zM515.289 473.786c-71.804 0-130.265 58.74-130.265 130.886s58.461 130.886 130.265 130.886c71.804 0 130.265-58.74 130.265-130.886s-58.461-130.886-130.265-130.886z" />
<glyph unicode="&#xe90f;" glyph-name="Minus" d="M0 512h1024v-128h-1024v128z" />
<glyph unicode="&#xe910;" glyph-name="Multiply-2" d="M1005.056 799.744l-372.395-372.395 351.659-351.744-120.661-120.661-351.659 351.659-351.659-351.659-120.747 120.661 351.744 351.744-372.395 372.395 120.661 120.661 372.395-372.395 372.395 372.395 120.661-120.661z" />
<glyph unicode="&#xe911;" glyph-name="Multiply" d="M1009.792 40.768l-90.496-90.496-407.296 407.296-407.296-407.296-90.496 90.496 407.296 407.296-407.296 407.296 90.496 90.496 407.296-407.296 407.296 407.296 90.496-90.496-407.296-407.296 407.296-407.296z" />
<glyph unicode="&#xe912;" glyph-name="Phone" d="M941.824 287.854c-0.314-0.001-0.686-0.001-1.057-0.001-64.906 0-127.324 10.654-185.599 30.31l4.092-1.198c-28.599 9.728-63.744 0.805-81.189-17.115l-115.127-86.93c-133.522 71.278-215.771 153.49-286.098 286.025l84.37 112.128c15.018 14.995 24.309 35.722 24.309 58.62 0 9.017-1.441 17.698-4.105 25.824l0.166-0.586c-18.527 54.348-29.221 116.956-29.221 182.062 0 0.292 0 0.585 0.001 0.877v-0.045c-0.021 45.363-36.779 82.134-82.136 82.176h-188.054c-45.359-0.062-82.114-36.816-82.176-82.17v-0.006c0-519.314 422.51-941.824 941.824-941.824 45.359 0.062 82.114 36.816 82.176 82.17v187.544c-0.083 45.344-36.829 82.077-82.17 82.139h-0.006z" />
<glyph unicode="&#xe913;" glyph-name="Plus" d="M1024 384h-448v-448h-128v448h-448v128h448v448h128v-448h448v-128z" />
<glyph unicode="&#xe914;" glyph-name="Profile" d="M958.379 194.859c-90.3-155.917-256.254-259.178-446.345-259.413h-0.034c-184.192 0-355.2 99.413-446.379 259.413l-13.909 24.363 18.603 21.035c50.688 56.933 124.168 92.63 205.987 92.672h471.389c78.677 0 153.728-33.792 205.952-92.672l18.603-21.035-13.867-24.363zM747.691 254.507h-471.381c-46.635 0-91.477-16.64-126.72-46.336 79.24-117.663 211.877-194.087 362.377-194.304h0.034c145.963 0 282.197 73.771 362.368 194.304-33.961 28.787-78.271 46.302-126.67 46.336h-0.007zM512 411.392c-151.637 0-274.987 123.179-274.987 274.603s123.349 274.603 274.987 274.603c151.595 0 274.944-123.179 274.944-274.603s-123.349-274.603-274.944-274.603zM512 882.133c-108.365-0.048-196.219-87.797-196.437-196.118v-0.021c0.218-108.341 88.072-196.090 196.433-196.139h0.005c108.356 0.048 196.2 87.803 196.395 196.12v0.019c-0.194 108.336-88.038 196.090-196.39 196.139h-0.005z" />
<glyph unicode="&#xe915;" glyph-name="Right-Arrow" d="M735.232 746.518c-17.586 17.809-46.837 17.809-65.002 0-8.148-8.038-13.196-19.201-13.196-31.544s5.048-23.506 13.191-31.539l0.005-0.005 196.118-189.752h-820.803c-25.377 0-45.546-19.768-45.546-44.7 0.076-25.023 20.378-45.279 45.412-45.279 0.047 0 0.094 0 0.141 0h820.796l-196.118-189.084c-8.154-8.16-13.196-19.43-13.196-31.878s5.043-23.717 13.197-31.878v0c8.335-8.279 19.821-13.396 32.501-13.396s24.165 5.117 32.503 13.398l-0.003-0.003 274.165 266.24c8.413 7.921 13.652 19.132 13.652 31.566s-5.239 23.645-13.63 31.545l-0.022 0.021-274.165 266.285z" />
<glyph unicode="&#xe916;" glyph-name="Search-2" d="M979.483 32.579l-160.391 173.11c62.952 75.675 101.161 173.876 101.161 281.001 0 0.21 0 0.421 0 0.631v-0.033c0 241.448-193.374 437.895-431.212 437.895-237.676 0-431.104-196.446-431.104-437.895s193.428-437.949 431.104-437.949c0.286-0.001 0.624-0.001 0.962-0.001 92.4 0 177.853 29.742 247.308 80.176l-1.217-0.842 162.385-175.32c10.725-11.372 25.061-17.57 40.529-17.57 14.552 0 28.403 5.605 38.912 15.953 10.663 10.497 17.269 25.087 17.269 41.22 0 15.347-5.978 29.298-15.734 39.651l0.027-0.029zM489.041 810.927c175.751 0 318.733-145.246 318.733-323.638 0-178.445-142.983-323.638-318.733-323.638-175.643 0-318.626 145.192-318.626 323.638 0 178.392 142.983 323.638 318.626 323.638z" />
<glyph unicode="&#xe917;" glyph-name="Search" d="M1001.937 16.151l-239.523 239.569c58.148 70.395 93.418 161.555 93.418 260.953 0 0.304 0 0.609-0.001 0.913v-0.048c0 228.073-185.065 413.137-413.137 413.137-228.205-0.090-413.166-185.107-413.166-413.324 0-228.272 185.051-413.324 413.324-413.324 99.62 0 191.008 35.243 262.376 93.941l-0.716-0.571 239.337-239.29c7.42-7.461 17.693-12.078 29.044-12.078s21.624 4.617 29.043 12.077l0.002 0.002c7.447 7.418 12.055 17.681 12.055 29.021s-4.608 21.603-12.054 29.020l-0.001 0.001zM111.337 517.306c0 182.901 148.27 331.171 331.171 331.171s331.171-148.27 331.171-331.171v0c0-182.901-148.27-331.171-331.171-331.171s-331.171 148.27-331.171 331.171v0z" />
<glyph unicode="&#xe918;" glyph-name="Star" d="M963.994 573.269c-6.011 18.036-21.909 31.161-41.104 33.026l-0.197 0.015-260.983 23.552-103.083 241.254c-7.551 17.299-24.508 29.17-44.237 29.17s-36.686-11.871-44.116-28.86l-0.121-0.31-103.083-241.254-260.983-23.552c-24.677-2.184-43.883-22.757-43.883-47.815 0-14.431 6.37-27.375 16.451-36.172l0.057-0.049 197.291-172.919-58.163-255.863c-0.774-3.231-1.218-6.94-1.218-10.753 0-26.543 21.517-48.060 48.060-48.060 9.094 0 17.598 2.526 24.848 6.914l-0.215-0.121 225.075 134.485 224.939-134.485c6.988-4.165 15.411-6.627 24.409-6.627 26.656 0 48.265 21.609 48.265 48.265 0 3.679-0.412 7.262-1.191 10.705l0.062-0.323-58.163 255.863 197.291 172.919c10.054 8.841 16.366 21.732 16.366 36.097 0 5.326-0.868 10.45-2.469 15.237l0.098-0.339z" />
<glyph unicode="&#xe919;" glyph-name="Video" d="M868.949 91.051c-96.137-96.119-223.966-149.094-359.919-149.094-135.97 0-263.799 52.975-359.953 149.094-96.119 96.137-149.077 223.983-149.077 359.936 0 135.97 52.958 263.799 149.077 359.936 96.154 96.137 223.983 149.077 359.953 149.077 135.953 0 263.782-52.941 359.919-149.077s149.094-223.966 149.094-359.936c0-135.953-52.958-263.799-149.094-359.936zM509.030 900.369c-247.791 0-449.382-201.609-449.382-449.382s201.591-449.365 449.382-449.365c247.774 0 449.365 201.591 449.365 449.365s-201.591 449.382-449.365 449.382zM745.199 426.803l-357.905-258.475c-4.832-3.543-10.896-5.669-17.457-5.669-4.955 0-9.626 1.213-13.734 3.358l0.164-0.078c-9.727 5.045-16.259 15.037-16.265 26.555v516.984c0 0.008 0 0.017 0 0.027 0 16.467 13.349 29.815 29.815 29.815 6.565 0 12.635-2.122 17.561-5.718l-0.085 0.059 357.905-258.492c7.528-5.484 12.364-14.269 12.364-24.183s-4.837-18.7-12.279-24.124l-0.085-0.059zM399.667 651.145v-400.316l277.129 200.158-277.129 200.158z" />
</font>
</defs>
</svg>
